<svg width="282" height="162" viewBox="0 0 282 162" fill="none" xmlns="http://www.w3.org/2000/svg">
<path opacity="0.1" d="M13.064 160L247.617 150.874C282.546 118.452 272.334 54.4768 228.738 34.289C205.002 23.2975 178.057 27.0011 153.962 17.1791C143.715 13.0014 134.703 5.97483 124.087 2.42794C103.347 -4.50162 78.4901 3.83998 66.1377 21.8767C58.7555 32.6543 55.6462 46.1004 47.2209 56.0842C37.226 67.9279 22.9593 75.2456 13.0639 87.1664C0.364304 102.466 -2.88186 125.986 4.58009 144.493C6.42099 149.058 10.2398 156.369 13.064 160Z" fill="#F6F6F6"/>
<path d="M107.412 135.019L107.411 133.96C108.327 133.959 109.264 133.939 110.195 133.904L110.263 134.962L110.244 134.963C109.29 134.999 108.34 135.018 107.412 135.019ZM104.566 134.966C103.608 134.928 102.652 134.871 101.724 134.794L101.811 133.737C102.724 133.812 103.664 133.87 104.608 133.907L104.566 134.966ZM113.1 134.771L113.002 133.716C113.904 133.631 114.839 133.519 115.78 133.384L115.93 134.434C114.97 134.572 114.019 134.685 113.1 134.771ZM98.8894 134.491C97.9343 134.365 96.9859 134.214 96.0715 134.043L96.2645 133.001C97.1612 133.169 98.0905 133.317 99.0266 133.441L98.8894 134.491ZM118.734 133.972L118.544 132.93C119.468 132.76 120.383 132.573 121.295 132.375L121.518 133.411C120.595 133.61 119.669 133.799 118.734 133.972ZM93.2822 133.432C92.3434 133.195 91.4181 132.93 90.5323 132.641L90.8584 131.633C91.7211 131.915 92.6233 132.174 93.5376 132.403L93.2822 133.432ZM124.281 132.78L124.039 131.749C124.953 131.532 125.866 131.308 126.78 131.083L127.031 132.113C126.114 132.338 125.198 132.562 124.281 132.78ZM87.8435 131.65C86.9454 131.277 86.0691 130.869 85.2417 130.436L85.7281 129.495C86.5283 129.913 87.3761 130.309 88.2457 130.669L87.8435 131.65ZM129.772 131.435L129.523 130.406C130.436 130.183 131.353 129.962 132.278 129.749L132.515 130.781C131.594 130.993 130.681 131.213 129.772 131.435ZM135.262 130.178L135.049 129.14C135.867 128.971 136.691 128.81 137.527 128.662L137.839 128.606L138.024 129.649L137.712 129.705C136.886 129.852 136.07 130.01 135.262 130.178ZM224.648 130.08C224.397 130.08 224.145 130.077 223.895 130.073L223.914 129.013C224.844 129.03 225.787 129.015 226.702 128.97L226.754 130.028C226.061 130.062 225.353 130.08 224.648 130.08ZM221.044 129.936C220.128 129.865 219.174 129.766 218.208 129.639L218.344 128.587C219.292 128.711 220.227 128.81 221.124 128.879L221.044 129.936ZM229.604 129.785L229.478 128.732C230.399 128.62 231.325 128.473 232.229 128.295L232.432 129.334C231.503 129.518 230.551 129.67 229.604 129.785ZM215.394 129.204C214.5 129.046 213.561 128.863 212.605 128.658L212.825 127.622C213.771 127.824 214.696 128.006 215.578 128.161L215.394 129.204ZM140.808 129.127L140.607 128.086C141.529 127.906 142.451 127.722 143.37 127.532L143.582 128.569C142.659 128.761 141.733 128.946 140.808 129.127ZM82.7594 128.98C81.9469 128.447 81.1671 127.87 80.4402 127.268L81.1114 126.45C81.8084 127.028 82.557 127.581 83.3368 128.094L82.7594 128.98ZM235.22 128.679L234.94 127.657C235.827 127.412 236.72 127.128 237.592 126.812L237.949 127.809C237.051 128.133 236.133 128.426 235.22 128.679ZM209.837 128.025C208.923 127.803 208.007 127.57 207.09 127.33L207.356 126.304C208.267 126.543 209.176 126.774 210.085 126.995L209.837 128.025ZM146.351 127.984L146.13 126.947C147.05 126.748 147.968 126.546 148.885 126.341L149.114 127.376C148.192 127.582 147.273 127.784 146.351 127.984ZM151.872 126.756L151.639 125.723L154.393 125.095L154.627 126.128L151.872 126.756ZM240.604 126.734L240.175 125.768C241.016 125.39 241.857 124.974 242.675 124.535L243.173 125.469C242.334 125.919 241.47 126.347 240.604 126.734ZM204.357 126.597L201.632 125.847L201.912 124.826L204.634 125.575L204.357 126.597ZM157.38 125.499L157.146 124.465C158.064 124.256 158.983 124.049 159.903 123.843L160.132 124.876C159.215 125.084 158.297 125.29 157.38 125.499ZM78.3288 125.294C77.6645 124.592 77.0408 123.845 76.4743 123.073L77.3234 122.444C77.8628 123.182 78.4579 123.894 79.0924 124.563L78.3288 125.294ZM198.911 125.1C197.997 124.853 197.089 124.619 196.188 124.401L196.436 123.372C197.346 123.593 198.262 123.828 199.185 124.077L198.911 125.1ZM162.889 124.27L162.666 123.235C163.587 123.034 164.51 122.838 165.434 122.645L165.648 123.683C164.726 123.874 163.806 124.071 162.889 124.27ZM245.643 124.017L245.08 123.122C245.859 122.626 246.634 122.095 247.381 121.543L248.005 122.398C247.24 122.963 246.445 123.509 245.643 124.017ZM193.448 123.778C192.52 123.583 191.593 123.403 190.693 123.245L190.875 122.201C191.788 122.363 192.726 122.544 193.665 122.742L193.448 123.778ZM168.402 123.142L168.22 122.099C169.156 121.934 170.103 121.789 171.033 121.666L171.17 122.718C170.256 122.836 169.324 122.98 168.402 123.142ZM187.921 122.809C186.986 122.681 186.05 122.571 185.137 122.483L185.238 121.427C186.164 121.516 187.115 121.628 188.063 121.758L187.921 122.809ZM173.952 122.413L173.863 121.358C174.81 121.277 175.766 121.217 176.705 121.18L176.746 122.24C175.825 122.275 174.885 122.334 173.952 122.413ZM182.345 122.277C181.414 122.227 180.471 122.2 179.546 122.193L179.554 121.134C180.496 121.141 181.454 121.169 182.401 121.218L182.345 122.277ZM74.9145 120.634C74.4526 119.801 74.0341 118.923 73.6686 118.023L74.6455 117.623C74.9947 118.485 75.3955 119.325 75.8371 120.119L74.9145 120.634ZM250.252 120.616L249.571 119.808C250.278 119.206 250.973 118.574 251.636 117.926L252.371 118.687C251.689 119.351 250.976 120 250.252 120.616ZM254.354 116.617L253.57 115.908C254.189 115.216 254.793 114.494 255.362 113.763L256.192 114.417C255.608 115.166 254.988 115.907 254.354 116.617ZM72.7366 115.287C72.4839 114.382 72.2706 113.436 72.1035 112.472L73.1415 112.29C73.3032 113.219 73.5083 114.131 73.7515 115L72.7366 115.287ZM257.877 112.094L257.005 111.498C257.526 110.727 258.025 109.928 258.488 109.127L259.4 109.659C258.923 110.484 258.411 111.302 257.877 112.094ZM71.7393 109.614C71.6619 108.68 71.6211 107.714 71.6171 106.74L72.6714 106.736C72.6755 107.681 72.7162 108.62 72.7909 109.527L71.7393 109.614ZM260.748 107.126L259.801 106.659C260.208 105.824 260.59 104.964 260.935 104.104L261.913 104.499C261.559 105.383 261.167 106.266 260.748 107.126ZM72.7597 103.94L71.7081 103.863C71.776 102.916 71.8861 101.953 72.0369 101L73.079 101.165C72.9322 102.088 72.8249 103.022 72.7597 103.94ZM262.883 101.793L261.879 101.471C262.161 100.584 262.412 99.677 262.624 98.7759L263.65 99.0203C263.432 99.9474 263.174 100.88 262.883 101.793ZM73.6224 98.4264L72.598 98.1765C72.8208 97.2562 73.0831 96.3251 73.3806 95.4089L74.3833 95.7366C74.0939 96.6282 73.8385 97.5321 73.6224 98.4264ZM264.201 96.1954L263.159 96.0329C263.302 95.1099 263.408 94.176 263.474 93.2571L264.526 93.3349C264.457 94.2825 264.348 95.2451 264.201 96.1954ZM75.3411 93.1096L74.3643 92.7082C74.7202 91.8317 75.1156 90.9496 75.5368 90.0867L76.4824 90.555C76.0735 91.3947 75.689 92.2549 75.3411 93.1096ZM263.563 90.4649C263.553 89.5378 263.506 88.5998 263.419 87.6769L264.469 87.5772C264.559 88.5302 264.608 89.4983 264.617 90.454L263.563 90.4649ZM77.7976 88.0824L76.8832 87.5526C77.3547 86.7307 77.8615 85.9087 78.3873 85.1113L79.2663 85.6971C78.7514 86.4767 78.2582 87.2795 77.7976 88.0824ZM263.044 84.9106C262.882 83.9986 262.678 83.0824 262.442 82.184L263.461 81.9123C263.705 82.838 263.915 83.7829 264.082 84.7236L263.044 84.9106ZM80.879 83.4087L80.038 82.7711C80.6046 82.0161 81.2051 81.2624 81.8233 80.5319L82.6263 81.2187C82.0217 81.9328 81.4334 82.6687 80.879 83.4087ZM261.62 79.5161C261.311 78.645 260.964 77.7712 260.586 76.9205L261.548 76.4877C261.938 77.3629 262.295 78.2627 262.613 79.1611L261.62 79.5161ZM84.4971 79.1338L83.7349 78.4019C84.3653 77.7384 85.0243 77.0762 85.7485 76.3798L86.4781 77.1458C85.7648 77.8312 85.1167 78.4811 84.4971 79.1338ZM88.5364 75.2289L87.8313 74.441C88.5323 73.8061 89.2429 73.1808 89.9576 72.5582L90.6478 73.3583C89.9386 73.9754 89.2334 74.5981 88.5364 75.2289ZM259.354 74.4137C258.915 73.6013 258.437 72.7917 257.934 72.0066L258.82 71.4331C259.337 72.2414 259.829 73.0743 260.28 73.9085L259.354 74.4137ZM92.7863 71.5069L92.0988 70.7027C92.8121 70.0869 93.5241 69.4697 94.2319 68.8485L94.9262 69.6459C94.217 70.2685 93.5023 70.8884 92.7863 71.5069ZM256.34 69.7087C255.79 68.9714 255.2 68.2382 254.589 67.5296L255.386 66.836C256.014 67.5637 256.619 68.316 257.184 69.0738L256.34 69.7087ZM97.043 67.7494L96.3324 66.967C97.0783 66.283 97.7454 65.6495 98.3717 65.031L99.1109 65.7874C98.4736 66.4141 97.797 67.0558 97.043 67.7494ZM252.689 65.4733C252.513 65.2931 252.333 65.1156 252.153 64.9395C251.665 64.463 251.168 63.9974 250.662 63.5427L251.365 62.7522C251.881 63.2164 252.389 63.6915 252.886 64.179C253.073 64.3606 253.256 64.5435 253.437 64.7278L252.689 65.4733ZM101.096 63.7339L100.321 63.0143C100.974 62.3043 101.589 61.5916 102.15 60.898L102.969 61.5657C102.393 62.2784 101.764 63.0075 101.096 63.7339ZM248.529 61.7295C247.813 61.1533 247.063 60.5812 246.302 60.0296L246.919 59.1694C247.695 59.732 248.459 60.3136 249.189 60.9021L248.529 61.7295ZM104.688 59.2664L103.82 58.6643C104.036 58.3502 104.248 58.0307 104.453 57.7071C104.744 57.2497 105.022 56.7773 105.282 56.3036L106.207 56.8115C105.937 57.3071 105.646 57.8014 105.343 58.2779C105.128 58.6124 104.911 58.9414 104.688 59.2664ZM243.993 58.4403C243.229 57.9393 242.427 57.4395 241.612 56.9535L242.15 56.0428C242.978 56.5357 243.792 57.0436 244.569 57.5529L243.993 58.4403ZM239.173 55.5649C238.371 55.1266 237.532 54.6897 236.683 54.2651L237.153 53.3161C238.013 53.7462 238.861 54.19 239.676 54.6337L239.173 55.5649ZM107.446 54.2023L106.472 53.7981C106.813 52.9652 107.126 52.0819 107.397 51.1739L108.407 51.4797C108.124 52.4218 107.801 53.338 107.446 54.2023ZM234.151 53.0458C233.3 52.6512 232.444 52.2703 231.583 51.8989L231.998 50.9254C232.868 51.2995 233.733 51.6859 234.592 52.0832L234.151 53.0458ZM228.985 50.8175C228.114 50.4666 227.239 50.1239 226.364 49.7921L226.736 48.8009C227.619 49.1368 228.5 49.4808 229.378 49.8345L228.985 50.8175ZM223.724 48.82C222.88 48.5251 221.984 48.2288 221.059 47.9434L221.368 46.9303C222.306 47.2212 223.216 47.5202 224.072 47.8206L223.724 48.82ZM109.116 48.6917L108.085 48.4691C108.271 47.5966 108.433 46.6941 108.581 45.7097L109.624 45.8667C109.472 46.8744 109.306 47.7973 109.116 48.6917ZM218.362 47.1488C217.459 46.8962 216.552 46.6532 215.642 46.417L215.906 45.3916C216.824 45.6292 217.737 45.8736 218.644 46.1289L218.362 47.1488ZM212.908 45.7234L210.166 45.0461L210.417 44.0167L213.162 44.6952L212.908 45.7234ZM207.422 44.3621C206.505 44.13 205.59 43.8938 204.68 43.6494L204.953 42.6254C205.858 42.8684 206.767 43.1032 207.68 43.3353L207.422 44.3621ZM109.98 43.0309L108.931 42.9189C109.03 41.985 109.113 41.047 109.189 40.1063L110.241 40.1923C110.165 41.1412 110.081 42.0874 109.98 43.0309ZM201.949 42.8834C201.039 42.6158 200.132 42.3373 199.236 42.0423L199.563 41.0347C200.45 41.3255 201.344 41.6013 202.245 41.8662L201.949 42.8834ZM196.55 41.1016C195.635 40.7589 194.745 40.4012 193.904 40.038L194.321 39.0645C195.146 39.4208 196.02 39.7731 196.918 40.109L196.55 41.1016ZM191.316 38.8269C190.475 38.4023 189.63 37.9449 188.804 37.4697L189.328 36.5495C190.137 37.0151 190.966 37.4629 191.79 37.8794L191.316 38.8269ZM110.458 37.3591L109.407 37.28C109.477 36.3351 109.549 35.3889 109.631 34.4441L110.681 34.5356C110.601 35.4763 110.529 36.4184 110.458 37.3591ZM186.368 35.9815C185.581 35.4722 184.788 34.9302 184.011 34.3731L184.623 33.5102C185.387 34.0577 186.165 34.5902 186.939 35.0899L186.368 35.9815ZM181.732 32.6582C181.001 32.082 180.259 31.4731 179.53 30.8477L180.213 30.0408C180.933 30.6566 181.663 31.256 182.383 31.824L181.732 32.6582ZM110.962 31.727L109.915 31.6055C110.032 30.5897 110.159 29.6626 110.305 28.7697L111.346 28.9403C111.203 29.8169 111.077 30.7276 110.962 31.727ZM177.401 28.9526C176.715 28.3205 176.023 27.6582 175.341 26.9851L176.08 26.2301C176.753 26.895 177.437 27.549 178.114 28.173L177.401 28.9526ZM111.881 26.1905L110.854 25.9515C111.074 24.9917 111.329 24.0578 111.609 23.1758L112.613 23.498C112.341 24.3527 112.096 25.2579 111.881 26.1905ZM173.348 24.9521C172.693 24.264 172.049 23.5676 171.415 22.8631L171.319 22.7566L172.103 22.0466L172.198 22.1531C172.826 22.8494 173.463 23.539 174.111 24.2203L173.348 24.9521ZM113.582 20.8888L112.613 20.4696C112.988 19.5931 113.415 18.7206 113.879 17.8754L114.802 18.3888C114.355 19.2039 113.943 20.0436 113.582 20.8888ZM169.462 20.5898C168.86 19.8593 168.267 19.1206 167.677 18.3792L168.5 17.717C169.087 18.453 169.677 19.1889 170.275 19.9139L169.462 20.5898ZM165.911 16.1687C165.32 15.4355 164.723 14.7092 164.116 13.9978L164.916 13.3069C165.532 14.0265 166.133 14.761 166.73 15.5011L165.911 16.1687ZM116.261 16.0199L115.392 15.4191C115.93 14.6313 116.514 13.8572 117.127 13.1185L117.936 13.7971C117.344 14.5125 116.782 15.2594 116.261 16.0199ZM162.242 11.9102C161.563 11.1947 160.911 10.5571 160.248 9.96179L160.952 9.17261C161.635 9.78702 162.306 10.4438 163.004 11.1797L162.242 11.9102ZM119.811 11.7436L119.068 10.9926C119.743 10.3168 120.459 9.66414 121.196 9.05382L121.867 9.87031C121.156 10.4601 120.465 11.0909 119.811 11.7436ZM158.098 8.20866C157.339 7.65432 156.558 7.15187 155.776 6.71359L156.289 5.78787C157.108 6.24527 157.924 6.7723 158.718 7.35121L158.098 8.20866ZM124.084 8.19637L123.491 7.32118C124.28 6.78049 125.103 6.27258 125.938 5.80972L126.447 6.73817C125.641 7.18327 124.847 7.67481 124.084 8.19637ZM153.285 5.51207C152.44 5.15571 151.563 4.83348 150.679 4.55359L150.995 3.54322C151.91 3.83267 152.817 4.16719 153.692 4.53447L153.285 5.51207ZM128.936 5.50934L128.518 4.5372C129.398 4.1549 130.303 3.81356 131.209 3.5241L131.53 4.53311C130.656 4.81164 129.784 5.14069 128.936 5.50934ZM147.998 3.83404C147.1 3.6347 146.179 3.47358 145.262 3.35343L145.399 2.3021C146.346 2.42635 147.297 2.59293 148.225 2.7991L147.998 3.83404ZM134.21 3.81629L133.986 2.78135C134.914 2.57791 135.865 2.4127 136.814 2.29118L136.948 3.34251C136.03 3.45993 135.108 3.61968 134.21 3.81629ZM142.493 3.11176C141.568 3.06944 140.641 3.06944 139.716 3.10767L139.672 2.04815C140.629 2.00855 141.587 2.00992 142.54 2.05224L142.493 3.11176Z" fill="#737373"/>
<line x1="1.13644" y1="161.5" x2="281.354" y2="149.5" stroke="url(#paint0_linear_5_800)"/>
<path d="M162.943 18.5821L69.6422 24.3601C62.5432 24.9445 56.6564 30.477 55.2157 37.9194L37.9204 127.242C36.127 136.507 42.738 145.185 51.6009 145.197L176.731 145.37L162.943 18.5821Z" fill="#F6F6F6"/>
<path d="M170.003 18.2868L77.8804 22.6134C70.3011 23.1417 64.1128 29.2959 63.0825 37.3274L50.6669 134.193C49.5107 143.211 56.1046 151.216 64.6334 151.146L190.548 150.122L170.003 18.2868Z" fill="#D1D1D1"/>
<path d="M205.943 16.7856L83.7408 21.8923C74.8127 22.2652 68.1224 30.2547 68.7953 39.7377L75.9207 140.105C76.5936 149.588 84.3765 156.973 93.3046 156.6L215.506 151.493C224.435 151.12 231.125 143.13 230.452 133.648L223.327 33.2805C222.654 23.796 214.871 16.411 205.943 16.7856Z" fill="#888888"/>
<path d="M223.327 33.279L224.169 45.1537L69.6391 51.6124L68.7968 39.7377C68.1239 30.2547 74.8142 22.2652 83.7424 21.8923L205.944 16.7856C214.871 16.411 222.654 23.796 223.327 33.279Z" fill="#F6F6F6"/>
<path d="M190.068 60.3308L181.259 60.6991C180.331 60.738 179.635 61.5678 179.705 62.5547L180.369 71.9102C180.439 72.8955 181.248 73.6632 182.176 73.6244L190.985 73.256C191.912 73.2172 192.609 72.3873 192.539 71.4005L191.875 62.0449C191.805 61.0612 190.995 60.2919 190.068 60.3308Z" fill="#F6F6F6"/>
<path d="M208.961 59.5413L200.152 59.9096C199.224 59.9485 198.528 60.7783 198.598 61.7652L199.262 71.1207C199.332 72.106 200.141 72.8737 201.069 72.8349L209.878 72.4666C210.805 72.4277 211.502 71.5978 211.432 70.611L210.768 61.2555C210.698 60.2702 209.89 59.5024 208.961 59.5413Z" fill="#F6F6F6"/>
<path d="M191.227 76.6595L182.419 77.0278C181.491 77.0667 180.795 77.8965 180.864 78.8834L181.528 88.2389C181.598 89.2242 182.408 89.9919 183.335 89.9546L192.144 89.5863C193.072 89.5475 193.768 88.7176 193.698 87.7307L193.034 78.3752C192.965 77.3884 192.155 76.6206 191.227 76.6595Z" fill="#F6F6F6"/>
<path d="M210.12 75.87L201.311 76.2383C200.384 76.2772 199.687 77.107 199.757 78.0939L200.421 87.4494C200.491 88.4347 201.301 89.2024 202.228 89.1651L211.037 88.7968C211.965 88.758 212.661 87.9281 212.591 86.9413L211.927 77.5857C211.857 76.5989 211.048 75.8312 210.12 75.87Z" fill="#F6F6F6"/>
<path d="M192.386 92.9882L183.578 93.3565C182.65 93.3953 181.954 94.2252 182.024 95.2121L182.687 104.568C182.757 105.553 183.567 106.321 184.495 106.283L193.303 105.915C194.231 105.876 194.927 105.046 194.857 104.059L194.194 94.7039C194.124 93.717 193.314 92.9493 192.386 92.9882Z" fill="#F6F6F6"/>
<path d="M211.279 92.1987L202.471 92.567C201.543 92.6059 200.847 93.4358 200.917 94.4226L201.58 103.778C201.65 104.763 202.46 105.531 203.388 105.494L212.196 105.126C213.124 105.087 213.82 104.257 213.75 103.27L213.087 93.9144C213.017 92.9276 212.207 92.1599 211.279 92.1987Z" fill="#F6F6F6"/>
<path d="M193.546 109.317L184.737 109.685C183.809 109.724 183.113 110.555 183.183 111.541L183.847 120.896C183.917 121.882 184.726 122.649 185.654 122.612L194.463 122.244C195.39 122.205 196.087 121.375 196.017 120.388L195.353 111.033C195.283 110.046 194.473 109.278 193.546 109.317Z" fill="#F6F6F6"/>
<path d="M212.439 108.527L203.63 108.896C202.702 108.935 202.006 109.766 202.076 110.751L202.74 120.107C202.81 121.092 203.619 121.86 204.547 121.823L213.356 121.454C214.283 121.415 214.98 120.585 214.91 119.599L214.246 110.243C214.176 109.256 213.366 108.489 212.439 108.527Z" fill="#F6F6F6"/>
<path d="M96.7624 80.6068L87.9539 80.9752C87.0262 81.014 86.3299 81.8439 86.3999 82.8307L87.0635 92.1863C87.1334 93.1716 87.9431 93.9393 88.8708 93.9004L97.6794 93.5321C98.6071 93.4933 99.3034 92.6634 99.2334 91.6765L98.5698 82.321C98.4999 81.3373 97.6902 80.568 96.7624 80.6068Z" fill="#F6F6F6"/>
<path d="M115.655 79.8174L106.847 80.1857C105.919 80.2246 105.223 81.0544 105.293 82.0413L105.956 91.3968C106.026 92.3821 106.836 93.1498 107.764 93.111L116.572 92.7427C117.5 92.7038 118.196 91.8739 118.126 90.8871L117.463 81.5315C117.393 80.5462 116.583 79.7785 115.655 79.8174Z" fill="#F6F6F6"/>
<path d="M97.9218 96.9356L89.1133 97.3039C88.1855 97.3427 87.4893 98.1742 87.5592 99.1594L88.2228 108.515C88.2927 109.5 89.1024 110.268 90.0302 110.231L98.8387 109.862C99.7665 109.824 100.463 108.994 100.393 108.007L99.7292 98.6513C99.6593 97.6644 98.8496 96.8967 97.9218 96.9356Z" fill="#F6F6F6"/>
<path d="M116.815 96.1461L108.006 96.5144C107.078 96.5533 106.382 97.3847 106.452 98.37L107.116 107.726C107.186 108.711 107.995 109.479 108.923 109.441L117.732 109.073C118.659 109.034 119.356 108.204 119.286 107.217L118.622 97.8618C118.552 96.875 117.742 96.1072 116.815 96.1461Z" fill="#F6F6F6"/>
<path d="M99.0811 113.264L90.2726 113.633C89.3448 113.671 88.6486 114.501 88.7185 115.488L89.3821 124.844C89.4521 125.829 90.2617 126.597 91.1895 126.559L99.998 126.191C100.926 126.152 101.622 125.321 101.552 124.336L100.889 114.98C100.819 113.993 100.009 113.225 99.0811 113.264Z" fill="#F6F6F6"/>
<path d="M117.974 112.475L109.166 112.843C108.238 112.882 107.542 113.712 107.611 114.699L108.275 124.054C108.345 125.04 109.155 125.807 110.082 125.77L118.891 125.402C119.819 125.363 120.515 124.531 120.445 123.546L119.781 114.19C119.712 113.204 118.902 112.436 117.974 112.475Z" fill="#F6F6F6"/>
<path d="M100.239 129.593L91.4304 129.961C90.5026 130 89.8064 130.832 89.8763 131.817L90.5399 141.172C90.6098 142.158 91.4195 142.925 92.3473 142.887L101.156 142.518C102.084 142.479 102.78 141.649 102.71 140.663L102.046 131.307C101.976 130.322 101.168 129.554 100.239 129.593Z" fill="#F6F6F6"/>
<path d="M119.133 128.803L110.325 129.172C109.397 129.211 108.701 130.042 108.771 131.027L109.434 140.383C109.504 141.368 110.314 142.136 111.242 142.097L120.05 141.729C120.978 141.69 121.674 140.86 121.604 139.873L120.941 130.518C120.871 129.532 120.061 128.765 119.133 128.803Z" fill="#F6F6F6"/>
<path d="M167.464 78.7353L131.114 80.0095C127.285 80.1439 124.412 83.0149 124.701 86.429L127.439 118.795C127.728 122.204 131.069 124.86 134.897 124.725L171.247 123.451C175.076 123.317 177.949 120.446 177.661 117.032L174.922 84.6655C174.634 81.2568 171.292 78.6009 167.464 78.7353Z" fill="#F6F6F6"/>
<path d="M138.026 128.014L129.218 128.382C128.29 128.421 127.594 129.253 127.664 130.238L128.327 139.593C128.397 140.579 129.207 141.346 130.135 141.308L138.943 140.939C139.871 140.9 140.567 140.071 140.497 139.084L139.834 129.728C139.764 128.743 138.954 127.975 138.026 128.014Z" fill="#F6F6F6"/>
<path d="M156.919 127.223L148.111 127.591C147.183 127.63 146.487 128.462 146.557 129.447L147.22 138.802C147.29 139.788 148.1 140.555 149.028 140.517L157.836 140.148C158.764 140.109 159.46 139.28 159.39 138.293L158.727 128.937C158.657 127.953 157.847 127.186 156.919 127.223Z" fill="#F6F6F6"/>
<path d="M152.282 61.9113L143.473 62.2796C142.546 62.3185 141.849 63.1483 141.919 64.1352L142.583 73.4907C142.653 74.476 143.462 75.2437 144.39 75.2049L153.199 74.8366C154.127 74.7977 154.823 73.9678 154.753 72.981L154.089 63.6254C154.019 62.6402 153.21 61.8724 152.282 61.9113Z" fill="#F6F6F6"/>
<path d="M171.175 61.1203L162.366 61.4886C161.439 61.5275 160.742 62.3573 160.812 63.3442L161.476 72.6997C161.546 73.685 162.355 74.4527 163.283 74.4139L172.092 74.0456C173.02 74.0067 173.716 73.1768 173.646 72.19L172.982 62.8344C172.912 61.8507 172.103 61.083 171.175 61.1203Z" fill="#F6F6F6"/>
<path d="M175.812 126.434L167.004 126.802C166.076 126.841 165.38 127.672 165.45 128.657L166.113 138.013C166.183 138.998 166.993 139.766 167.921 139.727L176.729 139.359C177.657 139.32 178.353 138.49 178.283 137.503L177.62 128.148C177.55 127.164 176.74 126.395 175.812 126.434Z" fill="#F6F6F6"/>
<path d="M147.169 119.469L157.755 118.923C166.577 118.468 169.924 114.758 169.469 105.936L168.923 95.3503C168.468 86.5286 164.758 83.1819 155.936 83.6367L145.35 84.1824C136.529 84.6372 133.182 88.3477 133.637 97.1694L134.182 107.755C134.637 116.577 138.348 119.924 147.169 119.469Z" stroke="#B0B0B0" stroke-width="2" stroke-linecap="round" stroke-linejoin="round"/>
<path d="M157.523 97.2645C158.985 97.1892 160.109 95.9432 160.033 94.4816C159.958 93.02 158.712 91.8962 157.25 91.9716C155.789 92.0469 154.665 93.2929 154.74 94.7545C154.816 96.2161 156.062 97.3399 157.523 97.2645Z" stroke="#B0B0B0" stroke-width="2" stroke-miterlimit="10" stroke-linecap="round" stroke-linejoin="round"/>
<path d="M145.173 97.9012C146.635 97.8258 147.759 96.5799 147.683 95.1183C147.608 93.6567 146.362 92.5329 144.9 92.6082C143.439 92.6836 142.315 93.9295 142.39 95.3911C142.466 96.8528 143.712 97.9765 145.173 97.9012Z" stroke="#B0B0B0" stroke-width="2" stroke-miterlimit="10" stroke-linecap="round" stroke-linejoin="round"/>
<path d="M145.917 112.825L158.604 111.91C159.485 111.846 160.139 111.09 160.075 110.209C159.758 105.822 155.961 102.535 151.573 102.852C147.186 103.169 143.9 106.966 144.216 111.354C144.28 112.235 145.035 112.889 145.917 112.825Z" stroke="#B0B0B0" stroke-width="2" stroke-miterlimit="10" stroke-linecap="round" stroke-linejoin="round"/>
<path d="M95.9885 45.9773L83.8201 46.4855L83.7097 44.9376L95.8797 44.4279L95.9885 45.9773Z" fill="#888888"/>
<path d="M114.881 45.1878L102.713 45.696L102.603 44.1481L114.773 43.6384L114.881 45.1878Z" fill="#888888"/>
<path d="M133.776 44.3968L121.606 44.9065L121.496 43.3587L133.666 42.8489L133.776 44.3968Z" fill="#888888"/>
<path d="M152.669 43.6073L140.499 44.1171L140.388 42.5677L152.558 42.0595L152.669 43.6073Z" fill="#888888"/>
<path d="M171.562 42.8179L159.392 43.3276L159.281 41.7782L171.451 41.27L171.562 42.8179Z" fill="#888888"/>
<path d="M190.455 42.0284L178.285 42.5381L178.174 40.9887L190.344 40.4805L190.455 42.0284Z" fill="#888888"/>
<path d="M209.348 41.2389L197.178 41.7486L197.067 40.1992L209.237 39.691L209.348 41.2389Z" fill="#888888"/>
<path d="M95.7901 32.5876C97.1509 32.2019 97.9192 30.7077 97.5061 29.2502C97.093 27.7927 95.6549 26.9239 94.2941 27.3096C92.9332 27.6954 92.1649 29.1896 92.578 30.647C92.9911 32.1045 94.4292 32.9733 95.7901 32.5876Z" fill="#D1D1D1"/>
<path d="M115.953 31.7446C117.313 31.3589 118.082 29.8647 117.669 28.4072C117.255 26.9498 115.817 26.0809 114.457 26.4667C113.096 26.8524 112.327 28.3466 112.74 29.8041C113.154 31.2615 114.592 32.1304 115.953 31.7446Z" fill="#D1D1D1"/>
<path d="M136.115 30.9016C137.476 30.5159 138.244 29.0217 137.831 27.5642C137.418 26.1067 135.98 25.2379 134.619 25.6236C133.258 26.0094 132.49 27.5036 132.903 28.961C133.316 30.4185 134.754 31.2873 136.115 30.9016Z" fill="#D1D1D1"/>
<path d="M156.276 30.059C157.637 29.6733 158.405 28.1791 157.992 26.7216C157.579 25.2641 156.141 24.3953 154.78 24.781C153.419 25.1668 152.651 26.661 153.064 28.1185C153.477 29.5759 154.915 30.4447 156.276 30.059Z" fill="#D1D1D1"/>
<path d="M176.438 29.2145C177.799 28.8288 178.567 27.3346 178.154 25.8771C177.741 24.4197 176.303 23.5508 174.942 23.9366C173.581 24.3223 172.813 25.8165 173.226 27.274C173.639 28.7314 175.077 29.6003 176.438 29.2145Z" fill="#D1D1D1"/>
<path d="M196.601 28.3716C197.962 27.9858 198.73 26.4916 198.317 25.0341C197.904 23.5767 196.466 22.7079 195.105 23.0936C193.744 23.4793 192.976 24.9735 193.389 26.431C193.802 27.8885 195.24 28.7573 196.601 28.3716Z" fill="#D1D1D1"/>
<path d="M89.8981 21.7446C89.9867 20.2418 90.916 18.6971 92.4421 18.3116C93.8237 17.962 95.3545 18.6318 96.1937 19.7523C98.2761 22.5325 97.7819 27.3035 94.3645 28.7535C93.6807 29.0441 93.5082 30.0325 93.8439 30.6277C94.2433 31.3348 95.0312 31.4405 95.7181 31.1483C99.608 29.4994 100.957 24.5653 99.7292 20.7826C99.1076 18.8664 97.9296 17.0746 96.0724 16.1763C94.3241 15.3294 92.296 15.2175 90.5415 16.1126C88.4652 17.1694 87.2826 19.4415 87.1505 21.7042C87.0448 23.4727 89.794 23.51 89.8981 21.7446Z" fill="#888888"/>
<path d="M110.061 20.9023C110.149 19.3995 111.079 17.8547 112.605 17.4693C113.986 17.1197 115.517 17.7895 116.356 18.91C118.439 21.6902 117.945 26.4612 114.527 27.9112C113.843 28.2018 113.671 29.1902 114.007 29.7854C114.406 30.4925 115.194 30.5982 115.881 30.306C119.771 28.6571 121.12 23.7229 119.892 19.9403C119.27 18.0241 118.092 16.2323 116.235 15.334C114.487 14.4871 112.459 14.3752 110.704 15.2703C108.628 16.3271 107.445 18.5991 107.313 20.8619C107.207 22.6304 109.957 22.6662 110.061 20.9023Z" fill="#888888"/>
<path d="M136.042 29.4637C139.932 27.8148 141.281 22.8806 140.053 19.098C139.431 17.1818 138.253 15.39 136.396 14.4917C134.648 13.6447 132.62 13.5328 130.865 14.428C128.789 15.4848 127.606 17.7568 127.474 20.0196C127.37 21.7881 130.121 21.8254 130.223 20.06C130.312 18.5572 131.241 17.0124 132.767 16.627C134.149 16.2773 135.68 16.9471 136.519 18.0676C138.601 20.8479 138.107 25.6189 134.69 27.0689C134.006 27.3595 133.833 28.3479 134.169 28.9431C134.567 29.6486 135.355 29.7559 136.042 29.4637Z" fill="#888888"/>
<path d="M150.384 19.2177C150.473 17.7149 151.402 16.1701 152.928 15.7847C154.31 15.435 155.841 16.1048 156.68 17.2253C158.762 20.0056 158.268 24.7766 154.851 26.2265C154.167 26.5172 153.994 27.5055 154.33 28.1008C154.73 28.8079 155.517 28.9135 156.204 28.6214C160.094 26.9725 161.443 22.0383 160.215 18.2557C159.594 16.3395 158.416 14.5477 156.559 13.6494C154.81 12.8024 152.782 12.6905 151.028 13.5857C148.952 14.6424 147.769 16.9145 147.637 19.1772C147.531 20.9442 150.28 20.9815 150.384 19.2177Z" fill="#888888"/>
<path d="M170.547 18.3754C170.636 16.8726 171.565 15.3278 173.091 14.9424C174.473 14.5927 176.003 15.2626 176.843 16.383C178.925 19.1633 178.431 23.9343 175.013 25.3843C174.33 25.6749 174.157 26.6633 174.493 27.2585C174.892 27.9656 175.68 28.0713 176.367 27.7791C180.257 26.1302 181.606 21.196 180.378 17.4134C179.756 15.4972 178.578 13.7054 176.721 12.8071C174.973 11.9601 172.945 11.8482 171.19 12.7434C169.114 13.8002 167.931 16.0722 167.799 18.335C167.694 20.1019 170.443 20.1392 170.547 18.3754Z" fill="#888888"/>
<path d="M190.708 17.5315C190.797 16.0287 191.726 14.484 193.252 14.0985C194.634 13.7489 196.164 14.4187 197.004 15.5392C199.086 18.3194 198.592 23.0904 195.174 24.5404C194.491 24.831 194.318 25.8194 194.654 26.4146C195.053 27.1217 195.841 27.2274 196.528 26.9352C200.418 25.2863 201.767 20.3522 200.539 16.5695C199.917 14.6533 198.74 12.8615 196.882 11.9632C195.134 11.1163 193.106 11.0044 191.351 11.8995C189.275 12.9563 188.093 15.2284 187.96 17.4911C187.855 19.2596 190.605 19.2969 190.708 17.5315Z" fill="#888888"/>
<defs>
<linearGradient id="paint0_linear_5_800" x1="281" y1="150.003" x2="-4.49996" y2="162.001" gradientUnits="userSpaceOnUse">
<stop stop-color="#888888" stop-opacity="0"/>
<stop offset="0.282374" stop-color="#888888"/>
<stop offset="0.573152" stop-color="#888888"/>
<stop offset="1" stop-color="#888888" stop-opacity="0"/>
</linearGradient>
</defs>
</svg>
